Coordinates
version=1
nRows=9
nColumns=36
inDegrees=yes

Units are S.I. units (second, meters, Newtons, ...)
If the header above contains a line with 'inDegrees', this indicates whether rotational values are in degrees (yes) or radians (no).

endheader
time	pelvis_tilt	pelvis_list	pelvis_rotation	pelvis_tx	pelvis_ty	pelvis_tz	hip_flexion_r	hip_adduction_r	hip_rotation_r	knee_angle_r	knee_angle_r_beta	ankle_angle_r	subtalar_angle_r	mtp_angle_r	hip_flexion_l	hip_adduction_l	hip_rotation_l	knee_angle_l	knee_angle_l_beta	ankle_angle_l	subtalar_angle_l	mtp_angle_l	lumbar_extension	lumbar_bending	lumbar_rotation	arm_flex_r	arm_add_r	arm_rot_r	elbow_flex_r	pro_sup_r	arm_flex_l	arm_add_l	arm_rot_l	elbow_flex_l	pro_sup_l
      3.86666670	     -9.66454695	     -0.60227128	      1.47165128	      1.15889925	      0.79215464	      0.24481178	     34.37821884	      8.00829363	     -2.99400864	     59.62676094	      1.04068330	     35.59584664	     -2.22476686	     -7.49999987	     58.73391898	     -9.72193852	      1.72971891	     20.25577301	      0.35352993	     -9.01706987	    -20.36413644	     -7.49999987	     -2.86827347	      8.03722182	     -3.75601060	     31.63842219	     -3.25358330	     63.56258174	    132.39164261	    102.52934901	     29.98535368	      0.08747879	     69.84263570	    121.65053821	    107.11952932
      3.88333330	     -9.77762099	     -0.43048722	      1.38275206	      1.15855864	      0.79230811	      0.24438293	     34.42493940	      7.92105288	     -2.71250326	     59.51098633	      1.03866265	     35.38971994	     -2.49715537	     -7.49999987	     58.47349474	     -9.49538815	      1.79936311	     20.20726947	      0.35268339	     -8.42215104	    -20.00890262	     -7.49999987	     -2.88522948	      7.76272988	     -3.33134042	     31.04733216	     -3.45414996	     62.73349772	    132.61331931	    103.87224761	     29.31342334	      0.18417841	     69.61361109	    120.95153308	    109.24609353
      3.90000000	     -9.89743679	     -0.38204293	      1.37989978	      1.15412100	      0.79413861	      0.24706613	     34.57460502	      7.93951752	     -2.68609873	     59.32817976	      1.03547208	     35.34254678	     -2.49924600	     -7.49999987	     58.48024992	     -9.41686693	      2.06376066	     20.21859884	      0.35288112	     -8.37835843	    -19.94643168	     -7.49999987	     -2.98591474	      7.59798186	     -3.11263785	     31.19450172	     -3.36490529	     62.65092582	    132.58651319	    103.87250291	     29.21784610	      0.01789850	     69.62426440	    120.96927214	    109.24414907
      3.91666670	     -9.83443191	     -0.35995913	      1.29004311	      1.15842771	      0.79482130	      0.24397695	     34.22760965	      8.10864032	     -2.38259106	     58.84670752	      1.02706880	     34.79885653	     -3.27681619	     -7.49999987	     57.94951316	     -9.48274707	      1.98983948	     20.01971831	      0.34941000	     -8.09796878	    -19.89309886	     -7.49999987	     -2.83663894	      7.69597024	     -3.11449460	     30.52464838	     -3.23279445	     61.67279889	    132.41660128	    103.87865181	     28.54985810	     -0.27832658	     69.17423617	    121.25256259	    109.20443257
      3.93333330	    -10.01784174	     -0.27053854	      1.16158233	      1.15857369	      0.79507738	      0.24445744	     33.95424216	      8.15301988	     -1.98687828	     58.08754230	      1.01381887	     34.70950863	     -3.57064534	     -7.49999987	     57.94410632	     -9.45272449	      2.06031248	     20.01619832	      0.34934856	     -7.91183852	    -19.86465563	     -7.49999987	     -2.69136365	      7.58897518	     -3.15156315	     29.81733107	     -3.19699468	     61.32192948	    132.46695629	    104.20004651	     28.14687943	     -0.24681226	     68.75004891	    121.08382291	    109.40488094
      3.95000000	    -10.21188868	     -0.32341109	      1.22096025	      1.15385532	      0.79414499	      0.24667245	     34.08746287	      8.35249681	     -1.76161001	     57.70241808	      1.00709718	     34.67702858	     -3.78787558	     -7.49999987	     58.29628561	     -9.47615075	      2.24899790	     20.40034365	      0.35605317	     -7.90092567	    -19.78325416	     -7.49999987	     -2.74089508	      7.54930758	     -3.14631339	     30.08059021	     -3.14608122	     61.45312906	    132.63382391	    104.22426074	     28.56972733	     -0.09880735	     68.82141805	    121.50163864	    109.35077819
      3.96666670	    -10.28890600	     -0.43210811	      1.25852344	      1.15274019	      0.79392018	      0.23983276	     34.31125855	      8.33023317	     -1.71738411	     57.61929026	      1.00564633	     34.73023967	     -3.83217952	     -7.49999987	     58.47811628	     -9.39382598	      2.02093314	     20.42943385	      0.35656088	     -8.02936895	    -19.69018881	     -7.49999987	     -2.78324126	      7.82144882	     -3.06475784	     30.76129574	     -3.33261724	     61.32626769	    132.73600491	    104.21962811	     28.71844260	      0.33162623	     68.76579991	    121.73150948	    109.33130953
      3.98333330	    -10.44759523	     -0.92922339	      1.14848925	      1.14767215	      0.79536295	      0.24162364	     34.84287567	      8.77950479	     -1.82703108	     57.55548857	      1.00453278	     34.40364244	     -3.89610870	     -7.49999987	     59.17378225	     -9.75674221	      2.33190661	     20.81921375	      0.36336383	     -8.00444481	    -19.39935057	     -7.49999987	     -2.94319164	      8.44229926	     -3.05784362	     31.22948760	     -3.42111353	     62.20937176	    133.20121561	    104.23809417	     29.20800500	      0.60577842	     68.41680774	    121.71304795	    109.23344076
      4.00000000	    -10.64338332	     -1.11666301	      1.07924761	      1.14809390	      0.79742386	      0.24139902	     35.12647139	      8.98783138	     -1.66785585	     57.29974475	      1.00006921	     34.18318889	     -3.87599438	     -7.49999987	     59.89151051	     -9.92376991	      2.60134980	     21.27744269	      0.37136143	     -7.66850633	    -19.50320823	     -7.49999987	     -3.10402410	      8.57684672	     -2.96077179	     31.62220249	     -3.42164258	     63.22140247	    133.27427344	    103.61738545	     29.61561346	      0.77624367	     68.38384608	    121.72938648	    108.44266051
